# xmcd
#
# Track frame offsets:
# 150
# 18972
# 38495
# 57597
# 75310
# 95887
# 115207
# 133110
# 153600
# 173867
# 192805
#
# Disc length: 2856 seconds
#
#
# Revision: 7
# Processed by: cddbd v1.5.1PL2 Copyright (c) Steve Scherf et al.
# Submitted via: FreeRIP 2.53 
#
DISCID=8b0b260b
DTITLE=김건모 - 아름다운 이별
DYEAR=1900
DGENRE=
TTITLE0=아름다운 이별
TTITLE1=드라마
TTITLE2=이밤이 가면
TTITLE3=너에게 (마음으로 하는 말)
TTITLE4=너를 만난 후로
TTITLE5=잘못된 만남
TTITLE6=멋있는 이별을 위해
TTITLE7=겨을이 오면
TTITLE8=넌 친구? 난 연인!
TTITLE9=그대와 함께
TTITLE10=겨울이 오면 (MR)
EXTD=
EXTT0=R&B Ballad
EXTT1=Reggae Dance
EXTT2=Jazz Funky
EXTT3=Reggae Ballad
EXTT4=Hip Hop
EXTT5=Disco House Music
EXTT6=Latin Funky
EXTT7=Acapella
EXTT8=24 Beat Funky
EXTT9=R&B Ballad
EXTT10=CD Bonus Track
PLAYORDER=
